<?xml version="1.0" encoding="UTF-8"?>
<svg xmlns="http://www.w3.org/2000/svg" xmlns:xlink="http://www.w3.org/1999/xlink" viewBox="0 0 45 45" width="45px" height="45px">
<g id="surface38620704">
<path style=" stroke:none;fill-rule:nonzero;fill:rgb(40.000001%,40.000001%,40.000001%);fill-opacity:1;" d="M 22.5 4.5 C 12.558594 4.5 4.5 12.558594 4.5 22.5 C 4.5 32.441406 12.558594 40.5 22.5 40.5 C 32.441406 40.5 40.5 32.441406 40.5 22.5 C 40.5 12.558594 32.441406 4.5 22.5 4.5 Z M 15.742188 12.605469 C 17.007812 12.605469 17.847656 13.445312 17.847656 14.566406 C 17.847656 15.691406 17.007812 16.53125 15.605469 16.53125 C 14.339844 16.53125 13.5 15.691406 13.5 14.566406 C 13.5 13.445312 14.339844 12.605469 15.742188 12.605469 Z M 18 30 L 13.5 30 L 13.5 18 L 18 18 Z M 33 30 L 28.765625 30 L 28.765625 23.441406 C 28.765625 21.628906 27.632812 21.210938 27.210938 21.210938 C 26.789062 21.210938 25.375 21.488281 25.375 23.441406 C 25.375 23.722656 25.375 30 25.375 30 L 21 30 L 21 18 L 25.378906 18 L 25.378906 19.675781 C 25.941406 18.699219 27.070312 18 29.1875 18 C 31.304688 18 33 19.675781 33 23.441406 Z M 33 30 "/>
</g>
</svg>
